# xmcd
#
# Track frame offsets:
#	150
#	34088
#	64752
#	91104
#	110601
#
# Disc length: 1961 seconds
#
# Revision: 0
# Processed by: cddbd v1.5.2PL0 Copyright (c) Steve Scherf et al.
# Submitted via: EasyCDDAExtractor 9.0.0.1
#
DISCID=3807a705
DTITLE=Iron Maiden - Globen Stockholm 18-11-06 FM Disc 2
DYEAR=2006
DGENRE=Hard Rock
TTITLE0=Fear Of The Dark
TTITLE1=Iron Maiden
TTITLE2=2 Minutes To Midnight
TTITLE3=The Evil That Men Do
TTITLE4=Hallowed Be Thy Name
EXTD=
EXTT0=
EXTT1=
EXTT2=
EXTT3=
EXTT4=
PLAYORDER=
